<svg id="Layer_1" data-name="Layer 1" xmlns="http://www.w3.org/2000/svg" viewBox="0 0 100 100"><defs><style>.cls-1{fill:none;}.cls-2{fill:#fff;}.cls-3{fill:#d1d3d4;}.cls-4{fill:#a7a9ac;}.cls-5{fill:#414042;}</style></defs><title>IMAGE_On</title><rect class="cls-1" width="100" height="100"/><rect class="cls-2" x="31.16" y="21.65" width="26.97" height="56.69"/><rect class="cls-3" x="31.16" y="21.65" width="26.97" height="29.07"/><polygon class="cls-2" points="68.84 31.34 42.37 31.34 39.91 17.64 66.38 17.64 68.84 31.34"/><polygon class="cls-3" points="68.84 31.34 42.37 31.34 31.16 50.73 58.13 50.73 68.84 31.34"/><polygon class="cls-4" points="39.9 17.64 42.37 31.34 31.16 50.73 31.16 32.93 39.9 17.64"/><path class="cls-5" d="M38,66.51c0-2.14,1.22-3.34,3-3.34s3,1.21,3,3.34-1.22,3.4-3,3.4S38,68.65,38,66.51Zm4.28,0c0-1.18-.48-1.86-1.26-1.86s-1.26.68-1.26,1.86.48,1.92,1.26,1.92S42.3,67.69,42.3,66.51Z"/><path class="cls-5" d="M45.72,63.29h1.76l1.44,2.9.62,1.46h0a23.3,23.3,0,0,1-.22-2.48V63.29H51v6.5H49.24L47.8,66.88l-.62-1.45h0a24.26,24.26,0,0,1,.22,2.48v1.88H45.72Z"/></svg>