<svg id="Layer_1" data-name="Layer 1" xmlns="http://www.w3.org/2000/svg" viewBox="0 0 100 100"><defs><style>.cls-1{fill:none;}.cls-2{fill:#fff;}.cls-3{fill:#a7a9ac;}</style></defs><title>IMAGE_switch</title><rect class="cls-1" width="100" height="100"/><rect class="cls-2" x="38.36" y="33.73" width="16.66" height="35.02"/><rect class="cls-2" x="38.36" y="33.73" width="16.66" height="17.96"/><polygon class="cls-2" points="61.64 39.71 45.29 39.71 43.77 31.25 60.12 31.25 61.64 39.71"/><polygon class="cls-2" points="61.64 39.71 45.29 39.71 38.36 51.69 55.02 51.69 61.64 39.71"/><polygon class="cls-3" points="61.64 39.71 45.29 39.71 38.36 51.69 55.02 51.69 61.64 39.71"/><polygon class="cls-2" points="43.76 31.25 45.29 39.71 38.36 51.69 38.36 40.7 43.76 31.25"/><polygon class="cls-3" points="43.76 31.25 45.29 39.71 38.36 51.69 38.36 40.7 43.76 31.25"/></svg>