<svg id="Layer_1" data-name="Layer 1" xmlns="http://www.w3.org/2000/svg" viewBox="0 0 100 100"><defs><style>.cls-1{fill:none;}.cls-2{fill:#fff;}.cls-3{fill:#d1d3d4;}.cls-4{fill:#a7a9ac;}.cls-5{fill:#ff4949;}</style></defs><title>IMAGE_off</title><rect class="cls-1" width="100" height="100"/><rect class="cls-2" x="31.16" y="21.65" width="26.97" height="56.69"/><rect class="cls-3" x="31.16" y="49.27" width="26.97" height="29.07"/><polygon class="cls-2" points="68.84 68.66 42.37 68.66 39.91 82.36 66.38 82.36 68.84 68.66"/><polygon class="cls-3" points="68.84 68.66 42.37 68.66 31.16 49.27 58.13 49.27 68.84 68.66"/><polygon class="cls-4" points="39.9 82.36 42.37 68.66 31.16 49.27 31.16 67.07 39.9 82.36"/><path class="cls-5" d="M35.77,32.91c0-2.14,1.22-3.34,3-3.34s3,1.21,3,3.34-1.22,3.4-3,3.4S35.77,35.05,35.77,32.91Zm4.28,0c0-1.18-.48-1.86-1.26-1.86s-1.26.68-1.26,1.86.48,1.92,1.26,1.92S40,34.09,40,32.91Z"/><path class="cls-5" d="M43.47,29.69h4.24v1.44H45.19v1.24h2.16v1.44H45.19v2.38H43.47Z"/><path class="cls-5" d="M49.33,29.69h4.24v1.44H51v1.24h2.16v1.44H51v2.38H49.33Z"/></svg>